<svg width="193" height="32" viewBox="0 0 193 32" fill="none" xmlns="http://www.w3.org/2000/svg">
<g clip-path="url(#clip0_423_2976)">
<path d="M189.802 0C188.032 0 186.605 1.41844 186.605 3.1773C186.605 4.93617 188.032 6.35461 189.802 6.35461C191.572 6.35461 193 4.93617 193 3.1773C193 1.41844 191.572 0 189.802 0ZM189.802 5.90071C188.318 5.90071 187.062 4.65248 187.062 3.1773C187.062 1.70213 188.318 0.453901 189.802 0.453901C191.287 0.453901 192.543 1.70213 192.543 3.1773C192.543 4.65248 191.287 5.90071 189.802 5.90071Z" fill="#333333"/>
<path d="M190.316 3.29075C190.602 3.17728 190.887 2.89359 190.887 2.49642C190.887 2.21274 190.773 1.98579 190.602 1.81557C190.374 1.64536 190.031 1.58862 189.517 1.58862C189.117 1.58862 188.832 1.58862 188.546 1.64536V4.82267H189.232V3.5177H189.46C189.745 3.5177 189.86 3.63118 189.974 4.02834C190.088 4.4255 190.145 4.65245 190.202 4.76593H190.945C190.888 4.65245 190.773 4.25529 190.716 3.85813C190.602 3.57444 190.488 3.40423 190.316 3.29075ZM189.574 3.00706H189.289V2.09926C189.346 2.09926 189.46 2.09926 189.631 2.09926C189.974 2.09926 190.145 2.26947 190.145 2.55316C190.145 2.83685 189.917 3.00706 189.574 3.00706Z" fill="#333333"/>
<path d="M27.0089 2.32624C26.3808 1.70213 25.2388 1.70213 24.6107 2.32624C24.6107 2.32624 1.65626 25.1348 0.971055 25.8156C-0.399359 27.1773 -0.342259 27.2908 0.913954 28.6525C1.65626 29.3901 2.68407 29.844 3.76898 29.844C4.85389 29.844 5.88171 29.4468 6.62401 28.6525L12.3912 22.922H13.8187H24.5536H26.8947C29.6926 22.922 30.9489 21.9007 30.9489 19.9149V18.6667C30.9489 18.5532 30.8347 18.4397 30.7205 18.4397H28.3793H18.4438H17.0163L18.558 16.9078L25.8098 9.64539L44.5959 28.3121C45.3382 29.0496 46.366 29.5035 47.4509 29.5035C48.5358 29.5035 49.5637 29.1064 50.306 28.3688C51.6764 27.0638 51.7335 27.0071 50.4202 25.6454L27.0089 2.32624Z" fill="#333333"/>
<path d="M126.249 22.8653C124.936 21.5603 122.88 21.2767 121.225 22.2979L118.655 23.8866L123.451 28.6525C124.137 29.3334 125.05 29.7306 126.021 29.7306C126.992 29.7306 127.905 29.3334 128.591 28.6525L129.162 28.0852C130.304 26.9504 130.304 26.9504 129.219 25.8724C128.077 24.6809 129.162 25.7022 126.249 22.8653Z" fill="#333333"/>
<path d="M109.805 15.0355C111.403 16.6241 114.03 16.6241 115.629 15.0922L116.999 13.7305L105.579 2.383C104.951 1.75889 103.809 1.75889 103.124 2.383C103.124 2.383 80.1694 25.2482 78.9132 26.4397C78.1138 27.2341 78.1709 27.3475 78.6277 27.8582C79.0274 28.2553 79.941 29.1064 79.941 29.1064C80.5691 29.7305 81.4256 30.1277 82.3392 30.1277C83.2528 30.1277 84.1093 29.7873 84.7945 29.1064L104.38 9.64541L109.805 15.0355Z" fill="#333333"/>
<path d="M67.7215 1.19153H45.1097C44.6529 1.19153 44.2532 1.58869 44.2532 2.04259V6.41139C44.2532 6.86529 44.6529 7.26245 45.1097 7.26245H62.6396V25.4752C62.6396 27.9717 64.6952 29.9007 67.2076 29.9007C68.5209 29.9007 68.6922 29.7873 68.6922 28.3121C68.6922 23.4327 68.6922 6.35465 68.6922 2.21281C68.6351 1.58869 68.2354 1.19153 67.7215 1.19153Z" fill="#333333"/>
<path d="M87.7066 5.95749C88.6773 3.51777 86.5075 1.19153 83.6525 1.19153H73.3744C71.7184 1.19153 71.6042 1.305 71.6042 2.66671V4.766C71.6042 6.1277 71.7755 6.24117 73.3744 6.24117H87.2498C87.4211 6.18444 87.6495 6.07096 87.7066 5.95749Z" fill="#333333"/>
<path d="M178.839 2.4397C176.955 2.4397 176.955 2.4397 176.955 4.08509V15.3191C176.955 21.2198 170.217 26.0425 161.88 26.0425C153.543 26.0425 146.806 21.2198 146.806 15.3191V6.86523C146.806 4.59573 144.978 2.78012 142.694 2.78012C140.81 2.78012 140.753 2.78012 140.753 4.42551V15.3191C140.753 24.5106 150.232 32 161.88 32C173.529 32 183.007 24.5106 183.007 15.3191V6.5248C183.007 4.31204 181.123 2.4397 178.839 2.4397Z" fill="#333333"/>
<path d="M133.673 8.00002C132.93 8.05676 127.962 8.39719 127.962 8.39719C127.277 8.45392 126.649 8.79435 126.192 9.36172C116.885 21.2199 102.324 19.2908 99.5264 18.7802C98.8983 18.6667 98.2131 18.8936 97.7563 19.3475L96.1003 21.0497L97.3566 21.5603C97.9276 21.7873 101.81 23.2624 107.578 23.2624C110.49 23.2624 113.916 22.922 117.684 21.7873C129.104 18.4965 133.501 9.75889 133.673 9.36172C133.673 9.36172 133.901 8.90782 134.072 8.51066C134.301 8.17023 134.415 7.94328 133.673 8.00002Z" fill="#333333"/>
</g>
<defs>
<clipPath id="clip0_423_2976">
<rect width="193" height="32" fill="white"/>
</clipPath>
</defs>
</svg>
