<svg width="74" height="13" viewBox="0 0 74 13" fill="none" xmlns="http://www.w3.org/2000/svg">
<g clip-path="url(#clip0_454_134)">
<path d="M72.7739 0C72.0953 0 71.5479 0.576241 71.5479 1.29078C71.5479 2.00532 72.0953 2.58156 72.7739 2.58156C73.4526 2.58156 74 2.00532 74 1.29078C74 0.576241 73.4526 0 72.7739 0ZM72.7739 2.39716C72.2047 2.39716 71.7231 1.89007 71.7231 1.29078C71.7231 0.691489 72.2047 0.184397 72.7739 0.184397C73.3432 0.184397 73.8248 0.691489 73.8248 1.29078C73.8248 1.89007 73.3432 2.39716 72.7739 2.39716Z" fill="#323136"/>
<path d="M72.971 1.337C73.0805 1.2909 73.1899 1.17565 73.1899 1.0143C73.1899 0.899054 73.1461 0.806855 73.0805 0.737706C72.9929 0.668557 72.8615 0.645508 72.6645 0.645508C72.5112 0.645508 72.4018 0.645508 72.2923 0.668557V1.95934H72.555V1.4292H72.6426C72.7521 1.4292 72.7958 1.4753 72.8396 1.63664C72.8834 1.79799 72.9053 1.89019 72.9272 1.93629H73.2118C73.1899 1.89019 73.1461 1.72884 73.1242 1.56749C73.0805 1.45225 73.0367 1.3831 72.971 1.337ZM72.6864 1.22175H72.5769V0.852955C72.5988 0.852955 72.6426 0.852955 72.7083 0.852955C72.8396 0.852955 72.9053 0.922104 72.9053 1.03735C72.9053 1.1526 72.8177 1.22175 72.6864 1.22175Z" fill="#323136"/>
<path d="M10.3554 0.945042C10.1146 0.691496 9.6767 0.691496 9.43587 0.945042C9.43587 0.945042 0.634684 10.211 0.371962 10.4876C-0.153482 11.0408 -0.131588 11.0869 0.350069 11.6401C0.634684 11.9397 1.02877 12.1241 1.44474 12.1241C1.86072 12.1241 2.2548 11.9628 2.53942 11.6401L4.75066 9.31206H5.298H9.41397H10.3116C11.3844 9.31206 11.866 8.89717 11.866 8.09043V7.58334C11.866 7.53724 11.8223 7.49114 11.7785 7.49114H10.8808H7.07137H6.52403L7.11516 6.8688L9.89563 3.91845L17.0986 11.5018C17.3832 11.8014 17.7773 11.9858 18.1933 11.9858C18.6092 11.9858 19.0033 11.8245 19.2879 11.5248C19.8134 10.9947 19.8353 10.9716 19.3317 10.4184L10.3554 0.945042Z" fill="#323136"/>
<path d="M48.4065 9.28903C47.9029 8.75888 47.1148 8.64364 46.4799 9.05853L45.4947 9.70392L47.3337 11.6401C47.5964 11.9167 47.9467 12.078 48.3189 12.078C48.6911 12.078 49.0414 11.9167 49.3041 11.6401L49.5231 11.4096C49.9609 10.9486 49.9609 10.9486 49.545 10.5107C49.1071 10.0266 49.5231 10.4415 48.4065 9.28903Z" fill="#323136"/>
<path d="M42.1012 6.10806C42.7142 6.75345 43.7213 6.75345 44.3343 6.13111L44.8598 5.57792L40.4811 0.967992C40.2402 0.714446 39.8024 0.714446 39.5396 0.967992C39.5396 0.967992 30.7384 10.257 30.2568 10.741C29.9503 11.0637 29.9722 11.1098 30.1473 11.3173C30.3006 11.4786 30.6509 11.8244 30.6509 11.8244C30.8917 12.0779 31.2201 12.2393 31.5704 12.2393C31.9207 12.2393 32.2491 12.101 32.5118 11.8244L40.0213 3.91835L42.1012 6.10806Z" fill="#323136"/>
<path d="M25.9657 0.484131H17.2959C17.1207 0.484131 16.9675 0.645478 16.9675 0.829876V2.6047C16.9675 2.7891 17.1207 2.95044 17.2959 2.95044H24.0172V10.3494C24.0172 11.3636 24.8053 12.1473 25.7686 12.1473C26.2722 12.1473 26.3379 12.1012 26.3379 11.5019C26.3379 9.51959 26.3379 2.58165 26.3379 0.899025C26.316 0.645478 26.1627 0.484131 25.9657 0.484131Z" fill="#323136"/>
<path d="M33.6284 2.4203C34.0006 1.42917 33.1686 0.484131 32.074 0.484131H28.1331C27.4982 0.484131 27.4544 0.53023 27.4544 1.08342V1.93626C27.4544 2.48945 27.5201 2.53555 28.1331 2.53555H33.4533C33.5189 2.5125 33.6065 2.4664 33.6284 2.4203Z" fill="#323136"/>
<path d="M68.5704 0.991211C67.8479 0.991211 67.8479 0.991211 67.8479 1.65965V6.22348C67.8479 8.62064 65.2645 10.5799 62.068 10.5799C58.8716 10.5799 56.2882 8.62064 56.2882 6.22348V2.78908C56.2882 1.8671 55.5876 1.12951 54.7118 1.12951C53.9893 1.12951 53.9675 1.12951 53.9675 1.79795V6.22348C53.9675 9.95752 57.6018 13.0001 62.068 13.0001C66.5343 13.0001 70.1686 9.95752 70.1686 6.22348V2.65079C70.1686 1.75185 69.4462 0.991211 68.5704 0.991211Z" fill="#323136"/>
<path d="M51.2527 3.25011C50.968 3.27316 49.0633 3.41146 49.0633 3.41146C48.8006 3.43451 48.5598 3.57281 48.3846 3.8033C44.816 8.62068 39.2331 7.83699 38.1604 7.62954C37.9195 7.58344 37.6568 7.67564 37.4817 7.86004L36.8467 8.55153L37.3284 8.75898C37.5473 8.85118 39.0361 9.45047 41.2473 9.45047C42.3639 9.45047 43.6775 9.31217 45.1225 8.85118C49.5012 7.5143 51.187 3.96465 51.2527 3.8033C51.2527 3.8033 51.3402 3.61891 51.4059 3.45756C51.4935 3.31926 51.5373 3.22706 51.2527 3.25011Z" fill="#0091B1"/>
</g>
<defs>
<clipPath id="clip0_454_134">
<rect width="74" height="13" fill="white"/>
</clipPath>
</defs>
</svg>
