<svg width="80" height="80" fill="none" xmlns="http://www.w3.org/2000/svg"><rect width="80" height="80" rx="40" fill="#F66B0E"/><path d="M57.738 36.548h-2.857v-7.62a3.82 3.82 0 00-3.81-3.809h-7.619v-2.857c0-2.667-2.095-4.762-4.761-4.762-2.667 0-4.762 2.095-4.762 4.762v2.857h-7.62a3.82 3.82 0 00-3.809 3.81v7.238h2.857a5.121 5.121 0 015.143 5.142 5.121 5.121 0 01-5.143 5.143H22.5v7.239a3.82 3.82 0 003.81 3.809h7.238v-2.857A5.121 5.121 0 0138.69 49.5a5.121 5.121 0 015.143 5.143V57.5h7.238a3.82 3.82 0 003.81-3.81v-7.619h2.857c2.667 0 4.762-2.095 4.762-4.761 0-2.667-2.095-4.762-4.762-4.762z" fill="#fff"/></svg>