<svg width="334" height="534" fill="none" xmlns="http://www.w3.org/2000/svg"><g opacity=".8" filter="url(#filter0_ddii_313_291)" fill="#1941B9" fill-opacity=".07" shape-rendering="crispEdges"><path d="M431.105 268.045c0 90.055-73.004 163.059-163.059 163.059-90.055 0-163.059-73.004-163.059-163.059 0-90.055 73.004-163.059 163.059-163.059 90.055 0 163.059 73.004 163.059 163.059zm-304.008 0c0 77.844 63.105 140.949 140.949 140.949 77.844 0 140.949-63.105 140.949-140.949 0-77.844-63.105-140.949-140.949-140.949-77.844 0-140.949 63.105-140.949 140.949z"/><path d="M329.537 174.277c51.21 34.538 64.726 104.05 30.188 155.26-34.538 51.21-104.051 64.726-155.261 30.188-51.21-34.538-64.725-104.051-30.187-155.261 34.537-51.21 104.05-64.725 155.26-30.187zM212.944 347.152c44.266 29.855 104.353 18.172 134.208-26.094 29.855-44.267 18.172-104.354-26.095-134.209-44.266-29.854-104.353-18.171-134.208 26.095-29.854 44.266-18.171 104.353 26.095 134.208z"/><path d="M498 267c0 127.578-103.422 231-231 231S36 394.578 36 267 139.422 36 267 36s231 103.422 231 231zm-430.678 0c0 110.279 89.399 199.678 199.678 199.678S466.678 377.279 466.678 267 377.279 67.322 267 67.322 67.322 156.721 67.322 267z"/></g><defs><filter id="filter0_ddii_313_291" x=".207" y=".207" width="533.585" height="533.585" filterUnits="userSpaceOnUse" color-interpolation-filters="sRGB"><feFlood flood-opacity="0" result="BackgroundImageFix"/><feColorMatrix in="SourceAlpha" values="0 0 0 0 0 0 0 0 0 0 0 0 0 0 0 0 0 0 127 0" result="hardAlpha"/><feOffset dx="8.948" dy="8.948"/><feGaussianBlur stdDeviation="13.422"/><feComposite in2="hardAlpha" operator="out"/><feColorMatrix values="0 0 0 0 0.141176 0 0 0 0 0.254902 0 0 0 0 0.607843 0 0 0 0.2 0"/><feBlend in2="BackgroundImageFix" result="effect1_dropShadow_313_291"/><feColorMatrix in="SourceAlpha" values="0 0 0 0 0 0 0 0 0 0 0 0 0 0 0 0 0 0 127 0" result="hardAlpha"/><feOffset dx="-8.948" dy="-8.948"/><feGaussianBlur stdDeviation="13.422"/><feComposite in2="hardAlpha" operator="out"/><feColorMatrix values="0 0 0 0 1 0 0 0 0 1 0 0 0 0 1 0 0 0 1 0"/><feBlend in2="effect1_dropShadow_313_291" result="effect2_dropShadow_313_291"/><feBlend in="SourceGraphic" in2="effect2_dropShadow_313_291" result="shape"/><feColorMatrix in="SourceAlpha" values="0 0 0 0 0 0 0 0 0 0 0 0 0 0 0 0 0 0 127 0" result="hardAlpha"/><feOffset dx="8.948" dy="8.948"/><feGaussianBlur stdDeviation="9.694"/><feComposite in2="hardAlpha" operator="arithmetic" k2="-1" k3="1"/><feColorMatrix values="0 0 0 0 1 0 0 0 0 1 0 0 0 0 1 0 0 0 1 0"/><feBlend in2="shape" result="effect3_innerShadow_313_291"/><feColorMatrix in="SourceAlpha" values="0 0 0 0 0 0 0 0 0 0 0 0 0 0 0 0 0 0 127 0" result="hardAlpha"/><feOffset dx="-8.948" dy="-8.948"/><feGaussianBlur stdDeviation="9.694"/><feComposite in2="hardAlpha" operator="arithmetic" k2="-1" k3="1"/><feColorMatrix values="0 0 0 0 0.141176 0 0 0 0 0.254902 0 0 0 0 0.607843 0 0 0 0.15 0"/><feBlend in2="effect3_innerShadow_313_291" result="effect4_innerShadow_313_291"/></filter></defs></svg>