<svg width="80" height="80" fill="none" xmlns="http://www.w3.org/2000/svg"><rect width="80" height="80" rx="40" fill="#F66B0E"/><mask id="a" style="mask-type:luminance" maskUnits="userSpaceOnUse" x="20" y="17" width="40" height="41"><path d="M60 17.5H20v40h40v-40z" fill="#fff"/></mask><g fill="#fff" mask="url(#a)"><path d="M57.928 50.927a6.336 6.336 0 01-6.285 4.894l-10.078-.434c-7.142-1.006-8.342-7.52-8.342-12.986v-6.923c0-1.428.54-2.804 1.511-3.851l8.317-10.677c1.234-1.34 2.772-3.106 4.683-.223a5.905 5.905 0 011.343 3.226c0 .71-.166 1.409-.486 2.042l-3.306 6.338h11.266a2.94 2.94 0 011.634.462 3.802 3.802 0 011.715 4.12l-1.972 14.012zM24.286 52.99h4a.929.929 0 00.923-.922l.922-16.366a.926.926 0 00-.922-.923h-4a4.306 4.306 0 00-4.286 4.286L20 48.699a4.305 4.305 0 004.286 4.292z"/></g></svg>