<svg width="193" height="32" fill="none" xmlns="http://www.w3.org/2000/svg"><g clip-path="url(#clip0_423_2976)" fill="#333"><path d="M189.802 0a3.182 3.182 0 00-3.197 3.177 3.182 3.182 0 003.197 3.178A3.183 3.183 0 00193 3.177 3.183 3.183 0 00189.802 0zm0 5.9c-1.484 0-2.74-1.248-2.74-2.723 0-1.475 1.256-2.723 2.74-2.723 1.485 0 2.741 1.248 2.741 2.723 0 1.475-1.256 2.724-2.741 2.724z"/><path d="M190.316 3.29c.286-.113.571-.396.571-.794a.938.938 0 00-.285-.68c-.228-.17-.571-.227-1.085-.227-.4 0-.685 0-.971.056v3.178h.686V3.518h.228c.285 0 .4.113.514.51.114.398.171.624.228.738h.743c-.057-.114-.172-.51-.229-.908-.114-.284-.228-.454-.4-.567zm-.742-.283h-.285V2.1h.342c.343 0 .514.17.514.454 0 .284-.228.454-.571.454zM27.009 2.326c-.628-.624-1.77-.624-2.398 0L.97 25.816C-.4 27.177-.343 27.291.913 28.653a4.078 4.078 0 002.855 1.191c1.085 0 2.113-.397 2.855-1.192l5.767-5.73h14.503c2.799 0 4.055-1.021 4.055-3.007v-1.248c0-.114-.114-.227-.229-.227H17.017l1.542-1.532 7.252-7.263 18.786 18.667a4.078 4.078 0 002.855 1.191c1.085 0 2.113-.397 2.855-1.134 1.37-1.305 1.428-1.362.114-2.724L27.01 2.326zm99.24 20.539a4.066 4.066 0 00-5.024-.567l-2.57 1.589 4.796 4.765a3.646 3.646 0 002.57 1.079c.971 0 1.884-.398 2.57-1.079l.571-.567c1.142-1.135 1.142-1.135.057-2.213-1.142-1.191-.057-.17-2.97-3.007zm-16.444-7.829c1.598 1.588 4.225 1.588 5.824.056l1.37-1.362-11.42-11.347c-.628-.624-1.77-.624-2.455 0 0 0-22.955 22.865-24.21 24.057-.8.794-.743.907-.286 1.418.4.397 1.313 1.248 1.313 1.248.628.624 1.485 1.022 2.398 1.022.914 0 1.77-.34 2.456-1.022l19.585-19.46 5.425 5.39zM67.722 1.192H45.11a.875.875 0 00-.857.85v4.37c0 .453.4.85.857.85h17.53v18.213c0 2.497 2.055 4.426 4.568 4.426 1.313 0 1.484-.114 1.484-1.589v-26.1c-.057-.623-.457-1.02-.97-1.02zm19.985 4.765c.97-2.44-1.2-4.765-4.054-4.765H73.374c-1.656 0-1.77.113-1.77 1.475v2.099c0 1.362.171 1.475 1.77 1.475H87.25c.171-.057.4-.17.457-.284zm91.132-3.517c-1.884 0-1.884 0-1.884 1.645V15.32c0 5.9-6.738 10.723-15.075 10.723s-15.074-4.822-15.074-10.723V6.865c0-2.27-1.828-4.085-4.112-4.085-1.884 0-1.941 0-1.941 1.646v10.893c0 9.192 9.479 16.681 21.127 16.681 11.649 0 21.127-7.49 21.127-16.68V6.524c0-2.213-1.884-4.085-4.168-4.085z"/><path d="M133.673 8c-.743.057-5.711.397-5.711.397-.685.057-1.313.397-1.77.965-9.307 11.858-23.868 9.929-26.666 9.418-.628-.113-1.313.114-1.77.567L96.1 21.05l1.257.51c.57.227 4.453 1.702 10.221 1.702 2.912 0 6.338-.34 10.106-1.475 11.42-3.29 15.817-12.028 15.989-12.425 0 0 .228-.454.399-.851.229-.34.343-.568-.399-.511z"/></g><defs><clipPath id="clip0_423_2976"><path fill="#fff" d="M0 0h193v32H0z"/></clipPath></defs></svg>