<svg width="32" height="32" fill="none" xmlns="http://www.w3.org/2000/svg"><rect width="32" height="32" rx="16" fill="#F66B0E"/><path d="M22.666 19.28v2a1.334 1.334 0 01-1.453 1.333 13.193 13.193 0 01-5.754-2.046 13 13 0 01-4-4 13.193 13.193 0 01-2.046-5.78 1.334 1.334 0 011.326-1.454h2a1.333 1.333 0 011.334 1.147c.084.64.24 1.268.466 1.873a1.334 1.334 0 01-.3 1.407l-.846.847a10.665 10.665 0 004 4l.846-.847a1.333 1.333 0 011.407-.3 8.559 8.559 0 001.873.466 1.333 1.333 0 011.147 1.354z" fill="#fff"/></svg>