<svg width="32" height="32" fill="none" xmlns="http://www.w3.org/2000/svg"><g clip-path="url(#clip0_1638_11558)"><mask id="a" style="mask-type:luminance" maskUnits="userSpaceOnUse" x="0" y="0" width="32" height="32"><path d="M32 16c0-8.837-7.163-16-16-16S0 7.163 0 16s7.163 16 16 16 16-7.163 16-16z" fill="#fff"/></mask><g mask="url(#a)"><path d="M32 0H0v32h32V0z" fill="#F66B0E"/><path d="M32 16c8.837 0 16-7.163 16-16s-7.163-16-16-16S16-8.837 16 0s7.163 16 16 16z" fill="#ED143B"/><path d="M19.766 15.27h-9.454v-3.742h9.454c.553 0 .937.097 1.13.265.192.168.311.48.311.935v1.343c0 .48-.12.792-.312.96-.192.168-.576.24-1.129.24v-.002zM20.415 8H6.303v16h4.01v-5.205H17.7L21.207 24h4.49l-3.866-5.23c1.426-.21 2.066-.647 2.593-1.367.528-.72.793-1.87.793-3.406v-1.2c0-.91-.097-1.63-.265-2.182a3.636 3.636 0 00-.864-1.463 3.908 3.908 0 00-1.489-.888C22.023 8.096 21.302 8 20.415 8v.001z" fill="#112B3C"/></g></g><defs><clipPath id="clip0_1638_11558"><path fill="#fff" d="M0 0h32v32H0z"/></clipPath></defs></svg>