<svg width="80" height="80" viewBox="0 0 80 80" fill="none" xmlns="http://www.w3.org/2000/svg">
<g id="approach">
<rect id="Rectangle 450" width="80" height="80" rx="40" fill="#F66B0E"/>
<g id="Group">
<g id="extension">
<path id="Vector" d="M57.7381 36.5476H54.881V28.9286C54.881 26.8333 53.1667 25.119 51.0714 25.119H43.4524V22.2619C43.4524 19.5952 41.3571 17.5 38.6905 17.5C36.0238 17.5 33.9286 19.5952 33.9286 22.2619V25.119H26.3095C24.2143 25.119 22.5 26.8333 22.5 28.9286V36.1667H25.3571C28.2143 36.1667 30.5 38.4524 30.5 41.3095C30.5 44.1667 28.2143 46.4524 25.3571 46.4524H22.5V53.6905C22.5 55.7857 24.2143 57.5 26.3095 57.5H33.5476V54.6429C33.5476 51.7857 35.8333 49.5 38.6905 49.5C41.5476 49.5 43.8333 51.7857 43.8333 54.6429V57.5H51.0714C53.1667 57.5 54.881 55.7857 54.881 53.6905V46.0714H57.7381C60.4048 46.0714 62.5 43.9762 62.5 41.3095C62.5 38.6429 60.4048 36.5476 57.7381 36.5476Z" fill="white"/>
</g>
</g>
</g>
</svg>
