<svg width="80" height="80" viewBox="0 0 80 80" fill="none" xmlns="http://www.w3.org/2000/svg">
<g id="idea">
<rect id="Rectangle 450" width="80" height="80" rx="40" fill="#F66B0E"/>
<g id="Group">
<path id="Vector" d="M32.8932 49.5012C32.3735 47.2734 30.0285 45.4517 29.066 44.2512C27.4178 42.1919 26.3849 39.709 26.0862 37.0884C25.7875 34.4677 26.2352 31.816 27.3776 29.4387C28.5201 27.0614 30.311 25.0552 32.5438 23.6512C34.7767 22.2472 37.3607 21.5025 39.9983 21.5029C42.6359 21.5034 45.2198 22.2489 47.4522 23.6536C49.6846 25.0583 51.4748 27.0651 52.6165 29.4428C53.7582 31.8204 54.2051 34.4723 53.9055 37.0928C53.606 39.7134 52.5723 42.196 50.9234 44.2547C49.9609 45.4534 47.6194 47.2752 47.0997 49.5012H32.8932ZM46.9964 53.0012V54.7512C46.9964 55.6794 46.6277 56.5697 45.9713 57.226C45.3149 57.8824 44.4247 58.2512 43.4965 58.2512H36.4965C35.5682 58.2512 34.678 57.8824 34.0216 57.226C33.3652 56.5697 32.9965 55.6794 32.9965 54.7512V53.0012H46.9964ZM41.7464 35.5099V28.5012L33.8715 39.0099H38.2465V46.0099L46.1215 35.5099H41.7464Z" fill="white"/>
</g>
</g>
</svg>
