<svg width="80" height="80" viewBox="0 0 80 80" fill="none" xmlns="http://www.w3.org/2000/svg">
<g id="like">
<rect id="Rectangle 450" width="80" height="80" rx="40" fill="#F66B0E"/>
<g id="Clip path group">
<mask id="mask0_1886_432" style="mask-type:luminance" maskUnits="userSpaceOnUse" x="20" y="17" width="40" height="41">
<g id="clip0_2_919">
<path id="Vector" d="M60 17.5H20V57.5H60V17.5Z" fill="white"/>
</g>
</mask>
<g mask="url(#mask0_1886_432)">
<g id="Group">
<path id="Vector_2" d="M57.9284 50.9269C57.5987 52.3386 56.7947 53.5946 55.6507 54.4852C54.5069 55.3758 53.0921 55.8475 51.6427 55.8212L41.5655 55.3869C34.4227 54.3812 33.2227 47.8669 33.2227 42.4012V35.4783C33.2229 34.0499 33.7628 32.6742 34.7341 31.6269L43.0512 20.9497C44.2855 19.6097 45.8227 17.844 47.7341 20.7269C48.4968 21.642 48.9649 22.7665 49.0769 23.9526C49.0772 24.6622 48.9107 25.3619 48.5912 25.9954L45.2855 32.3326H56.5512C57.1298 32.3227 57.6981 32.4837 58.1855 32.7954C58.8689 33.214 59.4027 33.8377 59.7104 34.5776C60.0184 35.3174 60.0847 36.1357 59.8998 36.9154L57.9284 50.9269Z" fill="white"/>
<path id="Vector_3" d="M24.2857 52.9908H28.2857C28.53 52.9891 28.7639 52.8917 28.9366 52.7188C29.1094 52.546 29.2071 52.3122 29.2086 52.068L30.1314 35.7022C30.1307 35.4576 30.0332 35.2234 29.8603 35.0504C29.6874 34.8775 29.4531 34.7801 29.2086 34.7793H25.2086C24.0735 34.7846 22.9865 35.2378 22.1839 36.0404C21.3813 36.843 20.9281 37.93 20.9229 39.065L20 48.6994C20.0038 49.8354 20.4563 50.924 21.2591 51.7277C22.0618 52.5314 23.1497 52.9854 24.2857 52.9908Z" fill="white"/>
</g>
</g>
</g>
</g>
</svg>
