<svg width="32" height="32" viewBox="0 0 32 32" fill="none" xmlns="http://www.w3.org/2000/svg">
<rect width="32" height="32" rx="16" fill="#F66B0E"/>
<path d="M22.6661 19.2799V21.2799C22.6668 21.4655 22.6288 21.6493 22.5544 21.8194C22.4801 21.9895 22.371 22.1423 22.2341 22.2678C22.0973 22.3933 21.9358 22.4889 21.7599 22.5483C21.584 22.6078 21.3977 22.6299 21.2128 22.6132C19.1613 22.3903 17.1908 21.6893 15.4594 20.5665C13.8486 19.543 12.483 18.1773 11.4594 16.5665C10.3327 14.8273 9.63159 12.8472 9.41276 10.7865C9.3961 10.6022 9.41801 10.4164 9.47709 10.2409C9.53618 10.0655 9.63114 9.90432 9.75594 9.76761C9.88073 9.6309 10.0326 9.52167 10.202 9.44688C10.3713 9.37208 10.5543 9.33337 10.7394 9.33319H12.7394C13.063 9.33001 13.3766 9.44458 13.6219 9.65555C13.8672 9.86652 14.0275 10.1595 14.0728 10.4799C14.1572 11.1199 14.3137 11.7483 14.5394 12.3532C14.6291 12.5918 14.6485 12.8511 14.5954 13.1004C14.5422 13.3498 14.4187 13.5786 14.2394 13.7599L13.3928 14.6065C14.3418 16.2756 15.7237 17.6575 17.3928 18.6065L18.2394 17.7599C18.4207 17.5806 18.6495 17.4571 18.8988 17.4039C19.1482 17.3508 19.4075 17.3702 19.6461 17.4599C20.2509 17.6856 20.8794 17.8421 21.5194 17.9265C21.8433 17.9722 22.139 18.1353 22.3504 18.3849C22.5619 18.6344 22.6742 18.9529 22.6661 19.2799Z" fill="white"/>
</svg>
