<svg width="24" height="24" viewBox="0 0 24 24" fill="none" xmlns="http://www.w3.org/2000/svg">
<path fill-rule="evenodd" clip-rule="evenodd" d="M8 4H16C18.2091 4 20 5.79086 20 8V16C20 18.2091 18.2091 20 16 20H8C5.79086 20 4 18.2091 4 16V8C4 5.79086 5.79086 4 8 4ZM2 8C2 4.68629 4.68629 2 8 2H16C19.3137 2 22 4.68629 22 8V16C22 19.3137 19.3137 22 16 22H8C4.68629 22 2 19.3137 2 16V8ZM18 9.41417C18.3905 9.02364 18.3905 8.39048 18 7.99995C17.6095 7.60943 16.9763 7.60943 16.5858 7.99995L10.7071 13.8786C10.3166 14.2692 9.68343 14.2692 9.29291 13.8786L7.41423 12C7.0237 11.6094 6.39054 11.6094 6.00001 12C5.60949 12.3905 5.60949 13.0236 6.00001 13.4142L9.29291 16.7071C9.68343 17.0976 10.3166 17.0976 10.7071 16.7071L18 9.41417Z" fill="#24419B"/>
</svg>
