<svg width="32" height="32" viewBox="0 0 32 32" fill="none" xmlns="http://www.w3.org/2000/svg">
<rect width="32" height="32" rx="16" fill="#F66B0E"/>
<path d="M22.6661 19.28V21.28C22.6668 21.4657 22.6288 21.6494 22.5544 21.8195C22.4801 21.9897 22.371 22.1424 22.2341 22.2679C22.0973 22.3934 21.9358 22.489 21.7599 22.5485C21.584 22.6079 21.3977 22.63 21.2128 22.6133C19.1613 22.3904 17.1908 21.6894 15.4594 20.5667C13.8486 19.5431 12.483 18.1774 11.4594 16.5667C10.3327 14.8275 9.63159 12.8473 9.41276 10.7866C9.3961 10.6023 9.41801 10.4165 9.47709 10.2411C9.53618 10.0656 9.63114 9.90444 9.75594 9.76773C9.88073 9.63102 10.0326 9.52179 10.202 9.447C10.3713 9.37221 10.5543 9.33349 10.7394 9.33332H12.7394C13.063 9.33013 13.3766 9.4447 13.6219 9.65567C13.8672 9.86664 14.0275 10.1596 14.0728 10.48C14.1572 11.12 14.3137 11.7485 14.5394 12.3533C14.6291 12.5919 14.6485 12.8513 14.5954 13.1006C14.5422 13.3499 14.4187 13.5787 14.2394 13.76L13.3928 14.6066C14.3418 16.2757 15.7237 17.6576 17.3928 18.6067L18.2394 17.76C18.4207 17.5807 18.6495 17.4572 18.8988 17.404C19.1482 17.3509 19.4075 17.3703 19.6461 17.46C20.2509 17.6857 20.8794 17.8422 21.5194 17.9267C21.8433 17.9723 22.139 18.1355 22.3504 18.385C22.5619 18.6345 22.6742 18.953 22.6661 19.28Z" fill="#112B3C"/>
</svg>
