<svg width="32" height="32" viewBox="0 0 32 32" fill="none" xmlns="http://www.w3.org/2000/svg">
<g id="Map">
<rect id="Rectangle 450" width="32" height="32" rx="16" fill="#F66B0E"/>
<g id="Group 111">
<path id="Vector" d="M22 14.1364C22 18.0191 18.029 21.4506 16.5481 22.5954C16.2227 22.8469 15.7773 22.8469 15.4519 22.5954C13.971 21.4506 10 18.0191 10 14.1364C10 12.5089 10.6321 10.9481 11.7574 9.7973C12.8826 8.64651 14.4087 8 16 8C17.5913 8 19.1174 8.64651 20.2426 9.7973C21.3679 10.9481 22 12.5089 22 14.1364Z" fill="#112B3C"/>
<path id="Vector_2" d="M16 16C17.1046 16 18 15.1046 18 14C18 12.8954 17.1046 12 16 12C14.8954 12 14 12.8954 14 14C14 15.1046 14.8954 16 16 16Z" fill="#F66B0E"/>
</g>
</g>
</svg>
