<svg width="16" height="16" viewBox="0 0 16 16" fill="none" xmlns="http://www.w3.org/2000/svg">
<g id="phone">
<path id="Vector" d="M14.6661 11.28V13.28C14.6668 13.4657 14.6288 13.6494 14.5544 13.8195C14.4801 13.9897 14.371 14.1424 14.2341 14.2679C14.0973 14.3934 13.9358 14.489 13.7599 14.5485C13.584 14.6079 13.3977 14.63 13.2128 14.6133C11.1613 14.3904 9.19076 13.6894 7.45943 12.5667C5.84865 11.5431 4.48298 10.1774 3.45943 8.56665C2.33275 6.82745 1.63159 4.84731 1.41276 2.78665C1.3961 2.60229 1.41801 2.41649 1.47709 2.24107C1.53618 2.06564 1.63114 1.90444 1.75594 1.76773C1.88073 1.63102 2.03263 1.52179 2.20195 1.447C2.37128 1.37221 2.55432 1.33349 2.73943 1.33332H4.73943C5.06296 1.33013 5.37662 1.4447 5.62193 1.65567C5.86725 1.86664 6.02748 2.15961 6.07276 2.47998C6.15718 3.12003 6.31373 3.74847 6.53943 4.35332C6.62912 4.59193 6.64853 4.85126 6.59536 5.10057C6.54219 5.34988 6.41867 5.57872 6.23943 5.75998L5.39276 6.60665C6.3418 8.27568 7.72373 9.65761 9.39276 10.6067L10.2394 9.75998C10.4207 9.58074 10.6495 9.45722 10.8988 9.40405C11.1482 9.35088 11.4075 9.37029 11.6461 9.45998C12.2509 9.68568 12.8794 9.84224 13.5194 9.92665C13.8433 9.97234 14.139 10.1355 14.3504 10.385C14.5619 10.6345 14.6742 10.953 14.6661 11.28Z" fill="#112B3C"/>
</g>
</svg>
