<svg width="32" height="32" viewBox="0 0 32 32" fill="none" xmlns="http://www.w3.org/2000/svg">
<g id="Icon_RUTUBE_dark_color_circle 1" clip-path="url(#clip0_1638_11530)">
<g id="Clip path group">
<mask id="mask0_1638_11530" style="mask-type:luminance" maskUnits="userSpaceOnUse" x="0" y="0" width="32" height="32">
<g id="clip0_519_1980">
<path id="Vector" d="M32 16C32 7.16344 24.8366 0 16 0C7.16344 0 0 7.16344 0 16C0 24.8366 7.16344 32 16 32C24.8366 32 32 24.8366 32 16Z" fill="white"/>
</g>
</mask>
<g mask="url(#mask0_1638_11530)">
<g id="Group">
<path id="Vector_2" d="M32 0H0V32H32V0Z" fill="#F66B0E"/>
<path id="Vector_3" d="M32 16C40.8366 16 48 8.83656 48 7.62939e-06C48 -8.83656 40.8366 -16 32 -16C23.1634 -16 16 -8.83656 16 7.62939e-06C16 8.83656 23.1634 16 32 16Z" fill="#ED143B"/>
<path id="Vector_4" d="M19.7663 15.2695H10.3124V11.5284H19.7663C20.3186 11.5284 20.7025 11.6247 20.8952 11.7928C21.0879 11.9608 21.2073 12.2726 21.2073 12.728V14.0713C21.2073 14.5511 21.0879 14.8629 20.8952 15.031C20.7025 15.1991 20.3186 15.2709 19.7663 15.2709V15.2695ZM20.4149 8.00143H6.30304V24H10.3124V18.795H17.7013L21.2073 24H25.697L21.8314 18.7706C23.2566 18.5594 23.8965 18.1227 24.4243 17.4029C24.952 16.6831 25.2167 15.5324 25.2167 13.9966V12.797C25.2167 11.8861 25.1203 11.1664 24.952 10.6147C24.7838 10.063 24.4963 9.5832 24.0878 9.15219C23.6563 8.74419 23.176 8.45685 22.5994 8.26434C22.0227 8.09627 21.3022 8 20.4149 8V8.00143Z" fill="white"/>
</g>
</g>
</g>
</g>
<defs>
<clipPath id="clip0_1638_11530">
<rect width="32" height="32" fill="white"/>
</clipPath>
</defs>
</svg>
